<svg width="327" height="59" viewBox="0 0 327 59" fill="none" xmlns="http://www.w3.org/2000/svg">
<path d="M27.5979 5.85447C28.1966 4.01185 30.8034 4.01185 31.4021 5.85447L35.6741 19.0024C35.9419 19.8264 36.7098 20.3844 37.5762 20.3844H51.4008C53.3382 20.3844 54.1438 22.8636 52.5764 24.0024L41.3921 32.1283C40.6911 32.6376 40.3978 33.5403 40.6655 34.3643L44.9375 47.5123C45.5363 49.3549 43.4273 50.8871 41.8599 49.7483L30.6756 41.6225C29.9746 41.1132 29.0254 41.1132 28.3244 41.6225L17.1401 49.7483C15.5727 50.8871 13.4637 49.3549 14.0624 47.5123L18.3345 34.3643C18.6022 33.5403 18.3089 32.6376 17.6079 32.1283L6.42363 24.0024C4.85621 22.8636 5.66175 20.3844 7.5992 20.3844H21.4238C22.2902 20.3844 23.0581 19.8264 23.3259 19.0024L27.5979 5.85447Z" fill="#FFD336"/>
<path d="M94.5979 5.85447C95.1966 4.01185 97.8034 4.01185 98.4021 5.85447L102.674 19.0024C102.942 19.8264 103.71 20.3844 104.576 20.3844H118.401C120.338 20.3844 121.144 22.8636 119.576 24.0024L108.392 32.1283C107.691 32.6376 107.398 33.5403 107.666 34.3643L111.938 47.5123C112.536 49.3549 110.427 50.8871 108.86 49.7483L97.6756 41.6225C96.9746 41.1132 96.0254 41.1132 95.3244 41.6225L84.1401 49.7483C82.5727 50.8871 80.4637 49.3549 81.0624 47.5123L85.3345 34.3643C85.6022 33.5403 85.3089 32.6376 84.6079 32.1283L73.4236 24.0024C71.8562 22.8636 72.6618 20.3844 74.5992 20.3844H88.4238C89.2902 20.3844 90.0581 19.8264 90.3259 19.0024L94.5979 5.85447Z" fill="#FFD336"/>
<path d="M161.598 5.85447C162.197 4.01185 164.803 4.01185 165.402 5.85447L169.674 19.0024C169.942 19.8264 170.71 20.3844 171.576 20.3844H185.401C187.338 20.3844 188.144 22.8636 186.576 24.0024L175.392 32.1283C174.691 32.6376 174.398 33.5403 174.666 34.3643L178.938 47.5123C179.536 49.3549 177.427 50.8871 175.86 49.7483L164.676 41.6225C163.975 41.1132 163.025 41.1132 162.324 41.6225L151.14 49.7483C149.573 50.8871 147.464 49.3549 148.062 47.5123L152.334 34.3643C152.602 33.5403 152.309 32.6376 151.608 32.1283L140.424 24.0024C138.856 22.8636 139.662 20.3844 141.599 20.3844H155.424C156.29 20.3844 157.058 19.8264 157.326 19.0024L161.598 5.85447Z" fill="#FFD336"/>
<path d="M228.598 5.85411C229.197 4.01149 231.803 4.01148 232.402 5.8541L236.674 19.002C236.942 19.8261 237.71 20.384 238.576 20.384H252.401C254.338 20.384 255.144 22.8632 253.576 24.002L242.392 32.1279C241.691 32.6372 241.398 33.5399 241.666 34.364L245.938 47.5119C246.536 49.3545 244.427 50.8868 242.86 49.748L231.676 41.6221C230.975 41.1128 230.025 41.1128 229.324 41.6221L218.14 49.748C216.573 50.8868 214.464 49.3545 215.062 47.5119L219.334 34.364C219.602 33.5399 219.309 32.6372 218.608 32.1279L207.424 24.002C205.856 22.8632 206.662 20.384 208.599 20.384H222.424C223.29 20.384 224.058 19.8261 224.326 19.002L228.598 5.85411Z" fill="#C4C4C4"/>
<path d="M295.598 5.85411C296.197 4.01149 298.803 4.01148 299.402 5.8541L303.674 19.002C303.942 19.8261 304.71 20.384 305.576 20.384H319.401C321.338 20.384 322.144 22.8632 320.576 24.002L309.392 32.1279C308.691 32.6372 308.398 33.5399 308.666 34.364L312.938 47.5119C313.536 49.3545 311.427 50.8868 309.86 49.748L298.676 41.6221C297.975 41.1128 297.025 41.1128 296.324 41.6221L285.14 49.748C283.573 50.8868 281.464 49.3545 282.062 47.5119L286.334 34.364C286.602 33.5399 286.309 32.6372 285.608 32.1279L274.424 24.002C272.856 22.8632 273.662 20.384 275.599 20.384H289.424C290.29 20.384 291.058 19.8261 291.326 19.002L295.598 5.85411Z" fill="#C4C4C4"/>
</svg>
